<?xml version="1.0" encoding="UTF-8"?>
<svg width="56px" height="56px" viewBox="0 0 56 56" version="1.1" xmlns="http://www.w3.org/2000/svg" xmlns:xlink="http://www.w3.org/1999/xlink">
    <!-- Generator: Sketch 49.2 (51160) - http://www.bohemiancoding.com/sketch -->
    <title>lead generation</title>
    <desc>Created with Sketch.</desc>
    <defs>
        <linearGradient x1="61.7859198%" y1="0%" x2="23.2115383%" y2="100%" id="linearGradient-1">
            <stop stop-color="#4A7BF1" offset="0%"></stop>
            <stop stop-color="#0B1075" offset="100%"></stop>
        </linearGradient>
    </defs>
    <g id="Page-1" stroke="none" stroke-width="1" fill="none" fill-rule="evenodd">
        <g id="Artboard" transform="translate(-569.000000, -953.000000)" fill-rule="nonzero">
            <g id="lead-generation" transform="translate(569.000000, 953.000000)">
                <circle id="Oval" fill="url(#linearGradient-1)" cx="27.9400625" cy="28.0447344" r="27.9400625"></circle>
                <circle id="Oval" fill="url(#linearGradient-1)" cx="27.9400625" cy="28.0447344" r="23.8185938"></circle>
                <path d="M27.9400625,46.1604063 C17.9507344,46.1604063 9.82384375,38.0335156 9.82384375,28.0441875 C9.82384375,18.0548594 17.9507344,9.92807812 27.9400625,9.92807812 C37.9293906,9.92807812 46.0561719,18.0549688 46.0561719,28.0442969 C46.0561719,38.033625 37.9292813,46.1604063 27.9400625,46.1604063 Z" id="Shape" fill="#00E7FF"></path>
                <path d="M27.9400625,40.4583594 C21.0948281,40.4583594 15.5258906,34.8894219 15.5258906,28.0441875 C15.5258906,21.1989531 21.0948281,15.6300156 27.9400625,15.6300156 C34.7851875,15.6300156 40.354125,21.1989531 40.354125,28.0441875 C40.354125,34.8894219 34.7851875,40.4583594 27.9400625,40.4583594 Z" id="Shape" fill="url(#linearGradient-1)"></path>
                <path d="M27.9400625,34.7563125 C24.2390313,34.7563125 21.2279375,31.7453281 21.2279375,28.0441875 C21.2279375,24.3430469 24.2389219,21.3320625 27.9400625,21.3320625 C31.6412031,21.3320625 34.6520781,24.3430469 34.6520781,28.0441875 C34.6520781,31.7453281 31.6410937,34.7563125 27.9400625,34.7563125 Z" id="Shape" fill="#00E7FF"></path>
                <path d="M50.9316719,7.26589062 L28.9897344,29.2077187 C28.3871875,29.8102656 27.4101406,29.8102656 26.8075937,29.2077187 C26.2050469,28.6051719 26.2050469,27.628125 26.8075937,27.0255781 L48.7494219,5.08364062 L50.9316719,7.26589062 Z" id="Shape" fill="#9FC5E6"></path>
                <path d="M50.9316719,7.26589062 L28.9897344,29.2077187 C28.3871875,29.8102656 27.4101406,29.8102656 26.8075937,29.2077187 L49.8405469,6.17476562 L50.9316719,7.26589062 Z" id="Shape" fill="#5897D1"></path>
                <polygon id="Shape" fill="#00E7FF" points="38.3312344 8.4625625 46.778375 0.0153125 48.7494219 5.08364063 40.3021719 13.5308906"></polygon>
                <g id="Group" transform="translate(40.140625, 2.187500)">
                    <polygon id="Shape" fill="#0B1075" points="0.09121875 4.37445313 1.35832812 3.10734375 3.32926563 8.17567187 2.06226563 9.44278125"></polygon>
                    <polygon id="Shape" fill="#0B1075" points="3.1885 1.2770625 4.45560938 0.009953125 6.42654688 5.07839062 5.1594375 6.34539063"></polygon>
                    <polygon id="Shape" fill="#00E7FF" points="10.7910469 5.07839062 2.34379687 13.5256406 7.412125 15.4965781 15.859375 7.04932812"></polygon>
                </g>
                <g id="Group" transform="translate(44.296875, 9.406250)" fill="#0B1075">
                    <polygon id="Shape" points="4.45254688 0.04178125 3.18554688 1.30889062 8.253875 3.2799375 9.52098437 2.01282813"></polygon>
                    <polygon id="Shape" points="1.35526563 3.13917187 0.08815625 4.40628125 5.15648437 6.37721875 6.42359375 5.11010938"></polygon>
                </g>
            </g>
        </g>
    </g>
</svg>