<?xml version="1.0" encoding="UTF-8"?>
<svg width="58px" height="56px" viewBox="0 0 58 56" version="1.1" xmlns="http://www.w3.org/2000/svg" xmlns:xlink="http://www.w3.org/1999/xlink">
    <!-- Generator: Sketch 49.2 (51160) - http://www.bohemiancoding.com/sketch -->
    <title>event</title>
    <desc>Created with Sketch.</desc>
    <defs>
        <linearGradient x1="61.7859198%" y1="0%" x2="23.2115383%" y2="100%" id="linearGradient-1">
            <stop stop-color="#4A7BF1" offset="0%"></stop>
            <stop stop-color="#0B1075" offset="100%"></stop>
        </linearGradient>
    </defs>
    <g id="Page-1" stroke="none" stroke-width="1" fill="none" fill-rule="evenodd">
        <g id="Artboard" transform="translate(-568.000000, -1046.000000)" fill-rule="nonzero">
            <g id="event" transform="translate(568.000000, 1046.000000)">
                <path d="M52.0624695,50.8075657 L1.40185547,50.8075657 C0.627471867,50.8075657 0.000442504883,50.1792131 0.000442504883,49.4047317 L0.000442504883,7.71868677 C0.000442504883,5.26107032 1.9908295,3.26929406 4.44673154,3.26929406 L49.0175934,3.26929406 C51.4730529,3.26929406 53.4638824,5.26107032 53.4638824,7.71868677 L53.4638824,49.4047317 C53.4638824,50.1796559 52.8364106,50.8075657 52.0624695,50.8075657 Z" id="Shape" fill="url(#linearGradient-1)"></path>
                <path d="M53.4634399,7.71912955 L53.4634399,49.4042889 C53.4634399,50.1792131 52.836853,50.8075657 52.0624695,50.8075657 L47.8113251,50.8075657 C48.5852661,50.8075657 49.2131806,50.1792131 49.2131806,49.4042889 L49.2131806,7.71912955 C49.2131806,5.26062753 47.2223511,3.26973684 44.7668915,3.26973684 L49.0184784,3.26973684 C51.4734955,3.26973684 53.4634399,5.26062753 53.4634399,7.71912955 Z" id="Shape" fill="#0B1075"></path>
                <path d="M53.4634399,7.71912955 L53.4634399,14.5238487 L0,14.5238487 L0,7.71912955 C0,5.26062753 1.99127197,3.26973684 4.44761661,3.26973684 L49.0184784,3.26973684 C51.4734955,3.26973684 53.4634399,5.26062753 53.4634399,7.71912955 Z" id="Shape" fill="#0B1075"></path>
                <path d="M53.4634399,7.71912955 L53.4634399,14.5238487 L49.2131806,14.5238487 L49.2131806,7.71912955 C49.2131806,5.26062753 47.2223511,3.26973684 44.7668915,3.26973684 L49.0184784,3.26973684 C51.4734955,3.26973684 53.4634399,5.26062753 53.4634399,7.71912955 Z" id="Shape" fill="#0B1075"></path>
                <g id="Group" transform="translate(4.984375, 17.910931)" fill="#FFFFFF">
                    <path d="M4.02015683,1.79560985 L0.978378324,1.79560985 C0.494720516,1.79560985 0.103103609,1.40327679 0.103103609,0.919724162 C0.103103609,0.43617153 0.494720516,0.0438385911 0.978378324,0.0438385911 L4.02015683,0.0438385911 C4.50381464,0.0438385911 4.89543155,0.43617153 4.89543155,0.919724162 C4.89543155,1.40327679 4.50381464,1.79560985 4.02015683,1.79560985 Z" id="Shape"></path>
                    <path d="M13.3698426,1.79560985 L10.3276215,1.79560985 C9.84440616,1.79560985 9.45234677,1.40327679 9.45234677,0.919724162 C9.45234677,0.43617153 9.84440616,0.0438385911 10.3276215,0.0438385911 L13.3698426,0.0438385911 C13.8530578,0.0438385911 14.2451172,0.43617153 14.2451172,0.919724162 C14.2451172,1.40327679 13.8530578,1.79560985 13.3698426,1.79560985 Z" id="Shape"></path>
                    <path d="M22.7190857,1.79560985 L19.6768647,1.79560985 C19.1936493,1.79560985 18.8020324,1.40327679 18.8020324,0.919724162 C18.8020324,0.43617153 19.1936493,0.0438385911 19.6768647,0.0438385911 L22.7190857,0.0438385911 C23.2027436,0.0438385911 23.5943604,0.43617153 23.5943604,0.919724162 C23.5943604,1.40327679 23.2027436,1.79560985 22.7190857,1.79560985 Z" id="Shape"></path>
                    <path d="M32.0687714,1.79560985 L29.0265503,1.79560985 C28.543335,1.79560985 28.1512756,1.40327679 28.1512756,0.919724162 C28.1512756,0.43617153 28.543335,0.0438385911 29.0265503,0.0438385911 L32.0687714,0.0438385911 C32.5519867,0.0438385911 32.944046,0.43617153 32.944046,0.919724162 C32.944046,1.40327679 32.5519867,1.79560985 32.0687714,1.79560985 Z" id="Shape"></path>
                    <path d="M41.4180146,1.79560985 L38.3762359,1.79560985 C37.8925781,1.79560985 37.5009613,1.40327679 37.5009613,0.919724162 C37.5009613,0.43617153 37.8925781,0.0438385911 38.3762359,0.0438385911 L41.4180146,0.0438385911 C41.9016724,0.0438385911 42.2932892,0.43617153 42.2932892,0.919724162 C42.2932892,1.40327679 41.9016724,1.79560985 41.4180146,1.79560985 Z" id="Shape"></path>
                    <path d="M4.02015683,6.1998355 L0.978378324,6.1998355 C0.494720516,6.1998355 0.103103609,5.80750256 0.103103609,5.32394993 C0.103103609,4.8403973 0.494720516,4.44806424 0.978378324,4.44806424 L4.02015683,4.44806424 C4.50381464,4.44806424 4.89543155,4.8403973 4.89543155,5.32394993 C4.89543155,5.80750256 4.50381464,6.1998355 4.02015683,6.1998355 Z" id="Shape"></path>
                    <path d="M13.3698426,6.1998355 L10.3276215,6.1998355 C9.84440616,6.1998355 9.45234677,5.80750256 9.45234677,5.32394993 C9.45234677,4.8403973 9.84440616,4.44806424 10.3276215,4.44806424 L13.3698426,4.44806424 C13.8530578,4.44806424 14.2451172,4.8403973 14.2451172,5.32394993 C14.2451172,5.80750256 13.8530578,6.1998355 13.3698426,6.1998355 Z" id="Shape"></path>
                    <path d="M22.7190857,6.1998355 L19.6768647,6.1998355 C19.1936493,6.1998355 18.8020324,5.80750256 18.8020324,5.32394993 C18.8020324,4.8403973 19.1936493,4.44806424 19.6768647,4.44806424 L22.7190857,4.44806424 C23.2027436,4.44806424 23.5943604,4.8403973 23.5943604,5.32394993 C23.5943604,5.80750256 23.2027436,6.1998355 22.7190857,6.1998355 Z" id="Shape"></path>
                    <path d="M32.0687714,6.1998355 L29.0265503,6.1998355 C28.543335,6.1998355 28.1512756,5.80750256 28.1512756,5.32394993 C28.1512756,4.8403973 28.543335,4.44806424 29.0265503,4.44806424 L32.0687714,4.44806424 C32.5519867,4.44806424 32.944046,4.8403973 32.944046,5.32394993 C32.944046,5.80750256 32.5519867,6.1998355 32.0687714,6.1998355 Z" id="Shape"></path>
                    <path d="M41.4180146,6.1998355 L38.3762359,6.1998355 C37.8925781,6.1998355 37.5009613,5.80750256 37.5009613,5.32394993 C37.5009613,4.8403973 37.8925781,4.44806424 38.3762359,4.44806424 L41.4180146,4.44806424 C41.9016724,4.44806424 42.2932892,4.8403973 42.2932892,5.32394993 C42.2932892,5.80750256 41.9016724,6.1998355 41.4180146,6.1998355 Z" id="Shape"></path>
                </g>
                <path d="M22.2708282,45.9428138 C21.6128234,45.9428138 20.9543762,45.6917383 20.4525757,45.1891447 L15.952301,40.6857287 C14.9478149,39.6809843 14.9478149,38.0518725 15.952301,37.0466853 C16.9563446,36.0419408 18.5847626,36.0419408 19.5888062,37.0466853 L22.2708282,39.7305795 L32.7763367,29.217295 C33.7808228,28.2129934 35.4087982,28.2125506 36.4128418,29.217295 C37.4173279,30.2224823 37.4173279,31.8515941 36.4128418,32.8567814 L24.0890809,45.1891447 C23.5868378,45.6917383 22.928833,45.9428138 22.2708282,45.9428138 Z" id="Shape" fill="#00E7FF"></path>
                <path d="M9.54792783,6.81534669 L7.92216495,6.81534669 C7.23141485,6.81534669 6.67120361,6.2551873 6.67120361,5.56351215 L6.67120361,1.30807181 C6.67120361,0.616839547 7.23141485,0.0566801619 7.92216495,0.0566801619 L9.54792783,0.0566801619 C10.2386779,0.0566801619 10.7988892,0.616839547 10.7988892,1.30807181 L10.7988892,5.56351215 C10.7988892,6.2551873 10.2386779,6.81534669 9.54792783,6.81534669 Z" id="Shape" fill="#00E7FF"></path>
                <path d="M21.2309418,6.81534669 L19.6047363,6.81534669 C18.9139862,6.81534669 18.3542176,6.2551873 18.3542176,5.56351215 L18.3542176,1.30807181 C18.3542176,0.616839547 18.9139862,0.0566801619 19.6047363,0.0566801619 L21.2309418,0.0566801619 C21.9216919,0.0566801619 22.4814605,0.616839547 22.4814605,1.30807181 L22.4814605,5.56351215 C22.4814605,6.2551873 21.9216919,6.81534669 21.2309418,6.81534669 Z" id="Shape" fill="#00E7FF"></path>
                <path d="M32.9139557,6.81534669 L31.2877502,6.81534669 C30.5970001,6.81534669 30.0372314,6.2551873 30.0372314,5.56351215 L30.0372314,1.30807181 C30.0372314,0.616839547 30.5970001,0.0566801619 31.2877502,0.0566801619 L32.9139557,0.0566801619 C33.6047059,0.0566801619 34.1644745,0.616839547 34.1644745,1.30807181 L34.1644745,5.56351215 C34.1644745,6.2551873 33.6042633,6.81534669 32.9139557,6.81534669 Z" id="Shape" fill="#00E7FF"></path>
                <path d="M44.5965272,6.81534669 L42.9707642,6.81534669 C42.2800141,6.81534669 41.7198028,6.2551873 41.7198028,5.56351215 L41.7198028,1.30807181 C41.7198028,0.616839547 42.2800141,0.0566801619 42.9707642,0.0566801619 L44.5965272,0.0566801619 C45.2872772,0.0566801619 45.8474884,0.616839547 45.8474884,1.30807181 L45.8474884,5.56351215 C45.8474884,6.2551873 45.2872772,6.81534669 44.5965272,6.81534669 Z" id="Shape" fill="#00E7FF"></path>
                <path d="M58,45.2152707 C58,51.1494181 53.1930694,55.9597039 47.2630615,55.9597039 C41.3330536,55.9597039 36.526123,51.1494181 36.526123,45.2152707 C36.526123,39.2815663 41.3330536,34.4712804 47.2630615,34.4712804 C53.1930694,34.4712804 58,39.2815663 58,45.2152707 Z" id="Shape" fill="#0B1075"></path>
                <path d="M54.9847717,45.2152707 C54.9847717,49.4831098 51.5274811,52.942371 47.2630615,52.942371 C42.998642,52.942371 39.5413514,49.4831098 39.5413514,45.2152707 C39.5413514,40.9478745 42.998642,37.4886134 47.2630615,37.4886134 C51.5274811,37.4886134 54.9847717,40.9478745 54.9847717,45.2152707 Z" id="Shape" fill="#00E7FF"></path>
                <path d="M47.2630615,40.7415233 C46.7798462,40.7415233 46.3877869,40.3496331 46.3877869,39.8656377 L46.3877869,38.7988993 C46.3877869,38.3153467 46.7798462,37.9230136 47.2630615,37.9230136 C47.7462769,37.9230136 48.1383361,38.3153467 48.1383361,38.7988993 L48.1383361,39.8656377 C48.1383361,40.3496331 47.7462769,40.7415233 47.2630615,40.7415233 Z" id="Shape" fill="#0B1075"></path>
                <path d="M47.2630615,52.5079706 C46.7798462,52.5079706 46.3877869,52.1156377 46.3877869,51.632085 L46.3877869,50.5653467 C46.3877869,50.0813512 46.7798462,49.689461 47.2630615,49.689461 C47.7462769,49.689461 48.1383361,50.0813512 48.1383361,50.5653467 L48.1383361,51.632085 C48.1383361,52.1156377 47.7462769,52.5079706 47.2630615,52.5079706 Z" id="Shape" fill="#0B1075"></path>
                <path d="M53.6749572,46.0911564 L52.608963,46.0911564 C52.1257477,46.0911564 51.7336884,45.6992661 51.7336884,45.2152707 C51.7336884,44.7317181 52.1257477,44.3398279 52.608963,44.3398279 L53.6749572,44.3398279 C54.1586151,44.3398279 54.5502319,44.7317181 54.5502319,45.2152707 C54.5502319,45.6992661 54.1586151,46.0911564 53.6749572,46.0911564 Z" id="Shape" fill="#0B1075"></path>
                <path d="M49.1923828,46.0911564 L47.2630615,46.0911564 C46.7798462,46.0911564 46.3877869,45.6992661 46.3877869,45.2152707 L46.3877869,43.4413588 C46.3877869,42.9573633 46.7798462,42.5654731 47.2630615,42.5654731 C47.7462769,42.5654731 48.1383361,42.9578062 48.1383361,43.4413588 L48.1383361,44.3398279 L49.1919403,44.3398279 C49.6755981,44.3398279 50.0672149,44.7317181 50.0672149,45.2152707 C50.0672149,45.6992661 49.6755981,46.0911564 49.1923828,46.0911564 Z" id="Shape" fill="#0B1075"></path>
                <path d="M41.9171601,46.0911564 L40.8511658,46.0911564 C40.3675079,46.0911564 39.9758911,45.6992661 39.9758911,45.2152707 C39.9758911,44.7317181 40.3675079,44.3398279 40.8511658,44.3398279 L41.9171601,44.3398279 C42.4003754,44.3398279 42.7924347,44.7317181 42.7924347,45.2152707 C42.7924347,45.6992661 42.4003754,46.0911564 41.9171601,46.0911564 Z" id="Shape" fill="#0B1075"></path>
            </g>
        </g>
    </g>
</svg>