<?xml version="1.0" encoding="UTF-8"?>
<svg width="55px" height="59px" viewBox="0 0 55 59" version="1.1" xmlns="http://www.w3.org/2000/svg" xmlns:xlink="http://www.w3.org/1999/xlink">
    <!-- Generator: Sketch 49.2 (51160) - http://www.bohemiancoding.com/sketch -->
    <title>Staffing</title>
    <desc>Created with Sketch.</desc>
    <defs>
        <linearGradient x1="61.7859198%" y1="0%" x2="23.2115383%" y2="100%" id="linearGradient-1">
            <stop stop-color="#4A7BF1" offset="0%"></stop>
            <stop stop-color="#0B1075" offset="100%"></stop>
        </linearGradient>
        <linearGradient x1="50%" y1="0%" x2="50%" y2="100%" id="linearGradient-2">
            <stop stop-color="#FFFFFF" offset="0%"></stop>
            <stop stop-color="#00E7FF" offset="100%"></stop>
        </linearGradient>
        <linearGradient x1="50%" y1="0%" x2="50%" y2="100%" id="linearGradient-3">
            <stop stop-color="#00F5FF" offset="0%"></stop>
            <stop stop-color="#00E7FF" offset="100%"></stop>
        </linearGradient>
    </defs>
    <g id="Page-1" stroke="none" stroke-width="1" fill="none" fill-rule="evenodd">
        <g id="Artboard" transform="translate(-569.000000, -122.000000)">
            <g id="Staffing" transform="translate(569.000000, 122.000000)">
                <g id="hiring" transform="translate(34.233333, 26.500000) rotate(10.000000) translate(-34.233333, -26.500000) translate(17.000000, 3.000000)">
                    <path d="M32.7534113,46.2446429 L2.07502874,46.2446429 C1.27579899,46.2446429 0.627935223,45.5870835 0.627935223,44.7758929 L0.627935223,1.59464286 C0.627935223,0.783452232 1.27579899,0.125892857 2.07502874,0.125892857 L32.7534113,0.125892857 C33.5526411,0.125892857 34.2005048,0.783452232 34.2005048,1.59464286 L34.2005048,44.7758929 C34.2005048,45.5870835 33.5526411,46.2446429 32.7534113,46.2446429 Z" id="Shape" fill="url(#linearGradient-1)" fill-rule="nonzero"></path>
                    <path d="M20.3508069,14.1972522 L20.3508069,14.9423491 C20.3508069,16.5883772 19.0361224,17.9228835 17.41422,17.9228835 C15.7924623,17.9228835 14.4776331,16.5885241 14.4776331,14.9423491 L14.4776331,14.1972522 C14.4776331,12.5512241 15.7923176,11.2167179 17.41422,11.2167179 C19.0359777,11.2167179 20.3508069,12.5512241 20.3508069,14.1972522 Z" id="Shape" fill="#FFCDAC" fill-rule="nonzero"></path>
                    <path d="M17.41422,4.53214286 C11.5094996,4.53214286 6.705728,9.40780536 6.705728,15.4008929 C6.705728,18.4923179 7.98611634,21.2842647 10.0344772,23.2653147 C10.086862,23.3243585 10.1431539,23.3803179 10.2052342,23.4305491 C12.1093199,25.193196 14.6401418,26.2696429 17.41422,26.2696429 C20.1882983,26.2696429 22.7191201,25.193196 24.6233505,23.4305491 C24.6854308,23.380171 24.7417228,23.3243585 24.7941075,23.2653147 C26.8423237,21.2842647 28.1227121,18.4923179 28.1227121,15.4008929 C28.1227121,9.40780536 23.3189404,4.53214286 17.41422,4.53214286 Z" id="Path" fill="#FFFFFF"></path>
                    <path d="M17.41422,17.9228835 C14.5476725,17.9228835 12.0986114,19.7303272 11.1083653,22.282721 C12.7618144,23.844296 14.9774592,24.8008929 17.41422,24.8008929 C19.8509808,24.8008929 22.0666257,23.844296 23.7200747,22.282721 C22.7298286,19.7301804 20.2807676,17.9228835 17.41422,17.9228835 Z" id="Shape" fill="#FFFFFF" fill-rule="nonzero"></path>
                    <path d="M17.41422,4.53214286 C11.5094996,4.53214286 6.705728,9.40780536 6.705728,15.4008929 C6.705728,18.4923179 7.98611634,21.2842647 10.0344772,23.2653147 C10.086862,23.3243585 10.1431539,23.3803179 10.2052342,23.4305491 C12.1093199,25.193196 14.6401418,26.2696429 17.41422,26.2696429 C20.1882983,26.2696429 22.7191201,25.193196 24.6233505,23.4305491 C24.6854308,23.380171 24.7417228,23.3243585 24.7941075,23.2653147 C26.8423237,21.2842647 28.1227121,18.4923179 28.1227121,15.4008929 C28.1227121,9.40780536 23.3189404,4.53214286 17.41422,4.53214286 Z M12.9262042,21.8876272 C13.891705,20.3458804 15.5603485,19.3916335 17.41422,19.3916335 C19.2680915,19.3916335 20.9367351,20.3460272 21.9022359,21.8876272 C20.6311089,22.7963429 19.0835871,23.3321429 17.41422,23.3321429 C15.7448529,23.3321429 14.1973311,22.7963429 12.9262042,21.8876272 Z M15.9248714,14.9423491 L15.9248714,14.1972522 C15.9248714,13.3637366 16.5929945,12.6856147 17.41422,12.6856147 C18.2354456,12.6856147 18.9035687,13.3637366 18.9035687,14.1972522 L18.9035687,14.9423491 C18.9035687,15.7760116 18.2354456,16.4541335 17.41422,16.4541335 C16.5929945,16.4541335 15.9248714,15.7760116 15.9248714,14.9423491 Z M23.9540698,19.7344397 C23.1933327,18.7167429 22.2187152,17.8992366 21.1072027,17.334796 C21.5436461,16.6433085 21.7977557,15.822571 21.7977557,14.9423491 L21.7977557,14.1972522 C21.7977557,11.7439991 19.8313003,9.74811473 17.41422,9.74811473 C14.9971397,9.74811473 13.0306843,11.7439991 13.0306843,14.1972522 L13.0306843,14.9423491 C13.0306843,15.8227179 13.2849387,16.6433085 13.7212374,17.334796 C12.6097248,17.8992366 11.6351074,18.716596 10.8743703,19.7344397 C10.0697863,18.4877647 9.59991503,16.9993335 9.59991503,15.4008929 C9.59991503,11.0275429 13.1053544,7.46964286 17.41422,7.46964286 C21.7230857,7.46964286 25.228525,11.0275429 25.228525,15.4008929 C25.228525,16.9993335 24.7586538,18.4877647 23.9540698,19.7344397 Z" id="Shape" stroke="#00E7FF" stroke-width="1.02857137" fill="#0B1075" fill-rule="nonzero"></path>
                    <path d="M26.3861998,29.7946429 L9.59991503,29.7946429 C8.80068528,29.7946429 8.15282151,30.4522022 8.15282151,31.2633929 C8.15282151,32.0745835 8.80068528,32.7321429 9.59991503,32.7321429 L26.3861998,32.7321429 C27.1854296,32.7321429 27.8332933,32.0745835 27.8332933,31.2633929 C27.8332933,30.4522022 27.1854296,29.7946429 26.3861998,29.7946429 Z" id="Shape" stroke="#00E7FF" stroke-width="1.02857137" fill="#0B1075" fill-rule="nonzero"></path>
                    <path d="M26.3861998,36.2571429 C26.0056142,36.2571429 25.6322641,36.4141522 25.3631047,36.6874866 C25.0939453,36.9606741 24.9391063,37.3396116 24.9391063,37.7258929 C24.9391063,38.1121741 25.0939453,38.4911116 25.3631047,38.7641522 C25.6322641,39.0373397 26.0056142,39.1946429 26.3861998,39.1946429 C26.7667854,39.1946429 27.1401356,39.0374866 27.4092949,38.7641522 C27.6784543,38.4911116 27.8332933,38.1121741 27.8332933,37.7258929 C27.8332933,37.3396116 27.6784543,36.9606741 27.4092949,36.6874866 C27.1401356,36.4142991 26.7667854,36.2571429 26.3861998,36.2571429 Z" id="Shape" stroke="#00E7FF" stroke-width="1.02857137" fill="#0B1075" fill-rule="nonzero"></path>
                    <path d="M20.3506622,36.2571429 L9.59991503,36.2571429 C8.80068528,36.2571429 8.15282151,36.9148491 8.15282151,37.7258929 C8.15282151,38.5369366 8.80068528,39.1946429 9.59991503,39.1946429 L20.3506622,39.1946429 C21.1498919,39.1946429 21.7977557,38.5369366 21.7977557,37.7258929 C21.7977557,36.9148491 21.1498919,36.2571429 20.3506622,36.2571429 Z" id="Shape" stroke="#00E7FF" stroke-width="1.02857137" fill="#0B1075" fill-rule="nonzero"></path>
                </g>
                <g id="hiring" transform="translate(17.000000, 3.000000)">
                    <path d="M32.7534113,46.2446429 L2.07502874,46.2446429 C1.27579899,46.2446429 0.627935223,45.5870835 0.627935223,44.7758929 L0.627935223,1.59464286 C0.627935223,0.783452232 1.27579899,0.125892857 2.07502874,0.125892857 L32.7534113,0.125892857 C33.5526411,0.125892857 34.2005048,0.783452232 34.2005048,1.59464286 L34.2005048,44.7758929 C34.2005048,45.5870835 33.5526411,46.2446429 32.7534113,46.2446429 Z" id="Shape" fill="#00E7FF" fill-rule="nonzero"></path>
                    <path d="M20.3508069,14.1972522 L20.3508069,14.9423491 C20.3508069,16.5883772 19.0361224,17.9228835 17.41422,17.9228835 C15.7924623,17.9228835 14.4776331,16.5885241 14.4776331,14.9423491 L14.4776331,14.1972522 C14.4776331,12.5512241 15.7923176,11.2167179 17.41422,11.2167179 C19.0359777,11.2167179 20.3508069,12.5512241 20.3508069,14.1972522 Z" id="Shape" fill="#FFCDAC" fill-rule="nonzero"></path>
                    <path d="M17.41422,4.53214286 C11.5094996,4.53214286 6.705728,9.40780536 6.705728,15.4008929 C6.705728,18.4923179 7.98611634,21.2842647 10.0344772,23.2653147 C10.086862,23.3243585 10.1431539,23.3803179 10.2052342,23.4305491 C12.1093199,25.193196 14.6401418,26.2696429 17.41422,26.2696429 C20.1882983,26.2696429 22.7191201,25.193196 24.6233505,23.4305491 C24.6854308,23.380171 24.7417228,23.3243585 24.7941075,23.2653147 C26.8423237,21.2842647 28.1227121,18.4923179 28.1227121,15.4008929 C28.1227121,9.40780536 23.3189404,4.53214286 17.41422,4.53214286 Z" id="Path" fill="#FFFFFF"></path>
                    <path d="M17.41422,17.9228835 C14.5476725,17.9228835 12.0986114,19.7303272 11.1083653,22.282721 C12.7618144,23.844296 14.9774592,24.8008929 17.41422,24.8008929 C19.8509808,24.8008929 22.0666257,23.844296 23.7200747,22.282721 C22.7298286,19.7301804 20.2807676,17.9228835 17.41422,17.9228835 Z" id="Shape" fill="#FFFFFF" fill-rule="nonzero"></path>
                    <path d="M17.41422,4.53214286 C11.5094996,4.53214286 6.705728,9.40780536 6.705728,15.4008929 C6.705728,18.4923179 7.98611634,21.2842647 10.0344772,23.2653147 C10.086862,23.3243585 10.1431539,23.3803179 10.2052342,23.4305491 C12.1093199,25.193196 14.6401418,26.2696429 17.41422,26.2696429 C20.1882983,26.2696429 22.7191201,25.193196 24.6233505,23.4305491 C24.6854308,23.380171 24.7417228,23.3243585 24.7941075,23.2653147 C26.8423237,21.2842647 28.1227121,18.4923179 28.1227121,15.4008929 C28.1227121,9.40780536 23.3189404,4.53214286 17.41422,4.53214286 Z M12.9262042,21.8876272 C13.891705,20.3458804 15.5603485,19.3916335 17.41422,19.3916335 C19.2680915,19.3916335 20.9367351,20.3460272 21.9022359,21.8876272 C20.6311089,22.7963429 19.0835871,23.3321429 17.41422,23.3321429 C15.7448529,23.3321429 14.1973311,22.7963429 12.9262042,21.8876272 Z M15.9248714,14.9423491 L15.9248714,14.1972522 C15.9248714,13.3637366 16.5929945,12.6856147 17.41422,12.6856147 C18.2354456,12.6856147 18.9035687,13.3637366 18.9035687,14.1972522 L18.9035687,14.9423491 C18.9035687,15.7760116 18.2354456,16.4541335 17.41422,16.4541335 C16.5929945,16.4541335 15.9248714,15.7760116 15.9248714,14.9423491 Z M23.9540698,19.7344397 C23.1933327,18.7167429 22.2187152,17.8992366 21.1072027,17.334796 C21.5436461,16.6433085 21.7977557,15.822571 21.7977557,14.9423491 L21.7977557,14.1972522 C21.7977557,11.7439991 19.8313003,9.74811473 17.41422,9.74811473 C14.9971397,9.74811473 13.0306843,11.7439991 13.0306843,14.1972522 L13.0306843,14.9423491 C13.0306843,15.8227179 13.2849387,16.6433085 13.7212374,17.334796 C12.6097248,17.8992366 11.6351074,18.716596 10.8743703,19.7344397 C10.0697863,18.4877647 9.59991503,16.9993335 9.59991503,15.4008929 C9.59991503,11.0275429 13.1053544,7.46964286 17.41422,7.46964286 C21.7230857,7.46964286 25.228525,11.0275429 25.228525,15.4008929 C25.228525,16.9993335 24.7586538,18.4877647 23.9540698,19.7344397 Z" id="Shape" stroke="url(#linearGradient-2)" stroke-width="1.02857137" fill="#0B1075" fill-rule="nonzero"></path>
                    <path d="M26.3861998,29.7946429 L9.59991503,29.7946429 C8.80068528,29.7946429 8.15282151,30.4522022 8.15282151,31.2633929 C8.15282151,32.0745835 8.80068528,32.7321429 9.59991503,32.7321429 L26.3861998,32.7321429 C27.1854296,32.7321429 27.8332933,32.0745835 27.8332933,31.2633929 C27.8332933,30.4522022 27.1854296,29.7946429 26.3861998,29.7946429 Z" id="Shape" stroke="url(#linearGradient-3)" stroke-width="1.02857137" fill="#0B1075" fill-rule="nonzero"></path>
                    <path d="M26.3861998,36.2571429 C26.0056142,36.2571429 25.6322641,36.4141522 25.3631047,36.6874866 C25.0939453,36.9606741 24.9391063,37.3396116 24.9391063,37.7258929 C24.9391063,38.1121741 25.0939453,38.4911116 25.3631047,38.7641522 C25.6322641,39.0373397 26.0056142,39.1946429 26.3861998,39.1946429 C26.7667854,39.1946429 27.1401356,39.0374866 27.4092949,38.7641522 C27.6784543,38.4911116 27.8332933,38.1121741 27.8332933,37.7258929 C27.8332933,37.3396116 27.6784543,36.9606741 27.4092949,36.6874866 C27.1401356,36.4142991 26.7667854,36.2571429 26.3861998,36.2571429 Z" id="Shape" stroke="url(#linearGradient-3)" stroke-width="1.02857137" fill="#0B1075" fill-rule="nonzero"></path>
                    <path d="M20.3506622,36.2571429 L9.59991503,36.2571429 C8.80068528,36.2571429 8.15282151,36.9148491 8.15282151,37.7258929 C8.15282151,38.5369366 8.80068528,39.1946429 9.59991503,39.1946429 L20.3506622,39.1946429 C21.1498919,39.1946429 21.7977557,38.5369366 21.7977557,37.7258929 C21.7977557,36.9148491 21.1498919,36.2571429 20.3506622,36.2571429 Z" id="Shape" stroke="url(#linearGradient-3)" stroke-width="1.02857137" fill="#0B1075" fill-rule="nonzero"></path>
                </g>
                <g id="magnifier-tool" transform="translate(0.000000, 17.000000)">
                    <path d="M17.6473821,35.2941176 C7.91594329,35.2941176 0,27.3788209 0,17.6473821 C0,7.91594329 7.91594329,0 17.6473821,0 C27.3785623,0 35.2951522,7.91594329 35.2951522,17.6473821 C35.2951522,27.3788209 27.3785623,35.2941176 17.6473821,35.2941176 Z" id="Path" fill="url(#linearGradient-1)"></path>
                    <path d="M18.5006863,15.5026383 C20.2829042,15.5026383 21.7274041,14.0467866 21.7274041,12.2511808 C21.7274041,10.455575 20.2826297,9 18.5006863,9 C16.7187429,9 15.2734193,10.4558517 15.2734193,12.2514575 C15.2734193,14.0470633 16.7187429,15.5026383 18.5006863,15.5026383 Z M19.8694055,17.4242532 L17.1314179,17.4242532 C14.853331,17.4242532 13,19.2920705 13,21.5876239 L13,24.9616474 L13.0085116,25.0144919 L13.2391483,25.0872568 C15.4131742,25.771745 17.3019244,26 18.8565258,26 C21.8929684,26 23.6529463,25.127651 23.7614005,25.0720398 L23.9769361,24.9622007 L23.9999997,24.9622007 L23.9999997,21.5876239 C24.0008234,19.2920705 22.1474925,17.4242532 19.8694055,17.4242532 Z" id="Shape" fill="#FFFFFF" fill-rule="nonzero"></path>
                    <path d="M41.0125447,36.2474877 L32.7658928,28 C31.5371369,29.911034 29.9109948,31.5363945 28,32.7652497 L36.2473186,41.0127374 C37.5639381,42.3290875 39.6986663,42.3290875 41.0124706,41.0127374 C42.3291641,39.6985358 42.3291641,37.5637638 41.0125447,36.2474877 Z" id="Shape" fill="#0B1075" fill-rule="nonzero"></path>
                </g>
            </g>
        </g>
    </g>
</svg>