<?xml version="1.0" encoding="UTF-8"?>
<svg width="64px" height="56px" viewBox="0 0 64 56" version="1.1" xmlns="http://www.w3.org/2000/svg" xmlns:xlink="http://www.w3.org/1999/xlink">
    <!-- Generator: Sketch 49.2 (51160) - http://www.bohemiancoding.com/sketch -->
    <title>sales</title>
    <desc>Created with Sketch.</desc>
    <defs>
        <linearGradient x1="61.7859198%" y1="0%" x2="23.2115383%" y2="100%" id="linearGradient-1">
            <stop stop-color="#4A7BF1" offset="0%"></stop>
            <stop stop-color="#0B1075" offset="100%"></stop>
        </linearGradient>
    </defs>
    <g id="Page-1" stroke="none" stroke-width="1" fill="none" fill-rule="evenodd">
        <g id="Artboard" transform="translate(-565.000000, -224.000000)">
            <g id="sales" transform="translate(565.000000, 224.000000)">
                <polygon id="Shape" fill="#0B1075" points="28.6783845 42.6370157 35.2576175 42.6370157 35.2576175 52.4263523 28.6783845 52.4263523"></polygon>
                <path d="M35.2576175,53.5136414 L28.6783845,53.5136414 C28.0729144,53.5136414 27.5816367,53.0275665 27.5816367,52.4263523 L27.5816367,42.6370157 C27.5816367,42.0358014 28.0729144,41.549104 28.6783845,41.549104 L35.2576175,41.549104 C35.8630876,41.549104 36.3537381,42.0358014 36.3537381,42.6370157 L36.3537381,52.4263523 C36.3537381,53.0275665 35.8630876,53.5136414 35.2576175,53.5136414 Z M29.7751326,51.3384408 L34.1608696,51.3384408 L34.1608696,43.7243048 L29.7751326,43.7243048 L29.7751326,51.3384408 Z" id="Shape" fill-rule="nonzero"></path>
                <path d="M60.6045423,5.65611456 C62.3506804,5.65611456 63.7667905,7.0601926 63.7667905,8.79288464 L63.7667905,41.6754462 C63.7667905,43.4081383 62.3506804,44.8128388 60.6045423,44.8128388 L3.33145988,44.8128388 C1.58469424,44.8122163 0.169211736,43.4075159 0.169211736,41.6754462 L0.169211736,8.79288464 C0.169211736,7.0601926 1.58469424,5.65611456 3.33145988,5.65611456 L38.8791446,5.65611456" id="Shape" fill="#00E7FF"></path>
                <polygon id="Shape" fill="#0B1075" points="23.1958996 52.4263523 40.7401024 52.4263523 40.7401024 55.6888421 23.1958996 55.6888421"></polygon>
                <polygon id="Shape" fill="url(#linearGradient-1)" fill-rule="nonzero" points="8.94131314 0.217179244 54.9946889 0.217179244 54.9946889 18.7079411 8.94131314 18.7079411"></polygon>
                <polygon id="Shape" fill="url(#linearGradient-1)" points="8.94131314 17.6200294 54.9946889 17.6200294 54.9946889 44.8122163 8.94131314 44.8122163"></polygon>
                <g id="Group-7" transform="translate(27.826087, 3.213115)" fill-rule="nonzero">
                    <path d="M8.02064334,4.61820037 C8.02064334,6.41997608 6.54806465,7.88131262 4.73165438,7.88131262 C2.91461655,7.88131262 1.44203786,6.41997608 1.44203786,4.61820037 C1.44203786,2.81580232 2.91461655,1.35508827 4.73165438,1.35508827 C6.54806465,1.35508827 8.02064334,2.81580232 8.02064334,4.61820037 Z" id="Shape" fill="#FFFFFF"></path>
                    <path d="M4.73165438,8.96860182 C2.31291096,8.96860182 0.345289895,7.0174561 0.345289895,4.61820037 C0.345289895,2.2189448 2.31291096,0.267176744 4.73165438,0.267176744 C7.14977024,0.267176744 9.1173913,2.2189448 9.1173913,4.61820037 C9.1173913,7.0174561 7.14977024,8.96860182 4.73165438,8.96860182 Z M4.73165438,2.4429998 C3.52196897,2.4429998 2.53815844,3.41888383 2.53815844,4.61820037 C2.53815844,5.81751706 3.52196897,6.79340109 4.73165438,6.79340109 C5.94071223,6.79340109 6.92452276,5.81751706 6.92452276,4.61820037 C6.92452276,3.41888383 5.94071223,2.4429998 4.73165438,2.4429998 Z" id="Shape" fill="#0B1075"></path>
                    <path d="M10.2141393,11.1444249 C9.93367794,11.1444249 9.65258921,11.0379987 9.43863556,10.8257689 L6.69739311,8.10599012 C6.26948564,7.68153028 6.26948564,6.99318343 6.69739311,6.56810141 C7.12530042,6.14364157 7.81986568,6.14364157 8.24777298,6.56810141 L10.9890156,9.28725782 C11.4175505,9.71234 11.4175505,10.4006867 10.9890156,10.8257689 C10.7750619,11.0379987 10.4946006,11.1444249 10.2141393,11.1444249 Z" id="Shape" fill="#0B1075"></path>
                </g>
                <g id="Group-6" transform="translate(24.115942, 22.950820)" fill-rule="nonzero">
                    <path d="M18.4443632,8.49091218 C18.4443632,13.047985 14.7200241,16.7423172 10.125937,16.7423172 C5.53184996,16.7423172 1.80751088,13.047985 1.80751088,8.49091218 C1.80751088,3.9338393 5.53184996,0.23950713 10.125937,0.23950713 C14.7200241,0.23950713 18.4443632,3.9338393 18.4443632,8.49091218 Z" id="Shape" fill="#0B1075"></path>
                    <path d="M16.93204,8.49091218 C16.93204,13.047985 13.2077011,16.7423172 8.6136139,16.7423172 C4.01952682,16.7423172 0.295187744,13.047985 0.295187744,8.49091218 C0.295187744,3.9338393 4.01952682,0.23950713 8.6136139,0.23950713 C13.2077011,0.23950713 16.93204,3.9338393 16.93204,8.49091218 Z" id="Shape" fill="#00E7FF"></path>
                    <path d="M6.16706893,4.34546529 C6.16706893,4.26648805 6.22029224,4.21455195 6.2990456,4.21455195 L9.6443303,4.21455195 C11.5491218,4.21455195 12.4478614,5.15884508 12.4478614,6.58859075 C12.4478614,7.59898434 11.97188,8.17543241 11.403731,8.47717701 L11.403731,8.50335966 C11.9588986,8.71367943 12.6066662,9.42189934 12.6066662,10.5104118 C12.6066662,12.2809614 11.4824844,13.1338298 9.51235352,13.1338298 L6.2990456,13.1338298 C6.22029224,13.1338298 6.16706893,13.0810352 6.16706893,13.0029164 L6.16706893,4.34546529 Z M9.6053863,7.92605309 C10.3985446,7.92605309 10.8879401,7.45433583 10.8879401,6.75899271 C10.8879401,6.05077281 10.3985446,5.57819705 9.6053863,5.57819705 L7.80617621,5.57819705 C7.75381816,5.57819705 7.72742285,5.60480889 7.72742285,5.6567451 L7.72742285,7.84750515 C7.72742285,7.89944125 7.75381816,7.92605309 7.80617621,7.92605309 L9.6053863,7.92605309 Z M7.80617621,11.7697554 L9.68413967,11.7697554 C10.5573493,11.7697554 11.0458794,11.270997 11.0458794,10.5237178 C11.0458794,9.78888601 10.5573493,9.29012749 9.68413967,9.29012749 L7.80617621,9.29012749 C7.75381816,9.29012749 7.72742285,9.31631014 7.72742285,9.36910474 L7.72742285,11.6903489 C7.72742285,11.7435727 7.75381816,11.7697554 7.80617621,11.7697554 Z" id="Shape" fill="#0B1075"></path>
                    <path d="M8.6136139,5.49020613 C8.19604832,5.49020613 7.85723599,5.15498198 7.85723599,4.74035151 L7.85723599,3.24021308 C7.85723599,2.8255826 8.19604832,2.48992926 8.6136139,2.48992926 C9.03117948,2.48992926 9.36955912,2.8255826 9.36955912,3.24021308 L9.36955912,4.74035151 C9.36955912,5.15498198 9.03117948,5.49020613 8.6136139,5.49020613 Z" id="Shape" fill="#0B1075"></path>
                    <path d="M8.6136139,14.491895 C8.19604832,14.491895 7.85723599,14.1562417 7.85723599,13.7416112 L7.85723599,12.9917566 C7.85723599,12.5771261 8.19604832,12.2414727 8.6136139,12.2414727 C9.03117948,12.2414727 9.36955912,12.5771261 9.36955912,12.9917566 L9.36955912,13.7416112 C9.36955912,14.1562417 9.03117948,14.491895 8.6136139,14.491895 Z" id="Shape" fill="#0B1075"></path>
                </g>
            </g>
        </g>
    </g>
</svg>