<?xml version="1.0" encoding="UTF-8"?>
<svg width="60px" height="60px" viewBox="0 0 60 60" version="1.1" xmlns="http://www.w3.org/2000/svg" xmlns:xlink="http://www.w3.org/1999/xlink">
    <!-- Generator: Sketch 49.2 (51160) - http://www.bohemiancoding.com/sketch -->
    <title>fashion</title>
    <desc>Created with Sketch.</desc>
    <defs>
        <linearGradient x1="61.7859198%" y1="0%" x2="23.2115383%" y2="100%" id="linearGradient-1">
            <stop stop-color="#0B1075" offset="0%"></stop>
            <stop stop-color="#0B1075" offset="100%"></stop>
        </linearGradient>
        <linearGradient x1="61.7859198%" y1="0%" x2="23.2115383%" y2="100%" id="linearGradient-2">
            <stop stop-color="#4A7BF1" offset="0%"></stop>
            <stop stop-color="#0B1075" offset="100%"></stop>
        </linearGradient>
    </defs>
    <g id="Page-1" stroke="none" stroke-width="1" fill="none" fill-rule="evenodd">
        <g id="Artboard" transform="translate(-567.000000, -501.000000)" fill-rule="nonzero">
            <g id="fashion" transform="translate(567.000000, 501.000000)">
                <path d="M44.0059582,60 L15.9944978,60 C13.3142328,60 11.1414761,57.8192139 11.1414761,55.1284791 L11.1414761,4.87197879 C11.1414761,2.18124387 13.3142328,-2.84217094e-14 15.9944978,-2.84217094e-14 L44.0055022,-2.84217094e-14 C46.6857672,-2.84217094e-14 48.8580678,2.18124387 48.8580678,4.87197879 L48.8580678,55.1280212 C48.8585239,57.8192139 46.6857672,60 44.0059582,60 Z" id="Shape" fill="url(#linearGradient-1)"></path>
                <path d="M44.0059582,0 L15.9944978,0 C13.3142328,0 11.1414761,2.18124387 11.1414761,4.87197879 L11.1414761,6.51260379 C11.1414761,3.82186887 13.3142328,1.640625 15.9944978,1.640625 L44.0055022,1.640625 C46.6857672,1.640625 48.8580678,3.82186887 48.8580679,6.51260379 L48.8580678,4.87197879 C48.8585239,2.18124387 46.6857672,0 44.0059582,0 Z" id="Shape" fill="#0B1075"></path>
                <path d="M15.9944978,60 L44.0055022,60 C46.6857672,60 48.8580678,57.8192139 48.8580678,55.1284791 L48.8580678,53.4878541 C48.8580678,56.1785889 46.6857672,58.359375 44.0055022,58.359375 L15.9944978,58.359375 C13.3142328,58.359375 11.1414761,56.1785889 11.1414761,53.4878541 L11.1414761,55.1284791 C11.1414761,57.8192139 13.3142328,60 15.9944978,60 Z" id="Shape" fill="#0B1075"></path>
                <path d="M15.9944978,57.65625 C14.6060311,57.65625 13.4761065,56.5223694 13.4761065,55.1284791 L13.4761065,7.91885379 C13.4761065,6.52496344 14.6060311,5.390625 15.9944978,5.390625 L44.0055022,5.390625 C45.3939689,5.390625 46.5234375,6.52496344 46.5234375,7.91885379 L46.5234375,55.1284791 C46.5234375,56.5223694 45.3939689,57.65625 44.0055022,57.65625 L15.9944978,57.65625 Z" id="Shape" fill="url(#linearGradient-2)"></path>
                <path d="M34.8179111,3.7298584 L21.6801434,3.7298584 C21.1001337,3.7298584 20.6295598,3.25744629 20.6295598,2.6751709 C20.6295598,2.09289551 21.1001337,1.6204834 21.6801434,1.6204834 L34.8179111,1.6204834 C35.3983767,1.6204834 35.8684947,2.09289551 35.8684947,2.6751709 C35.8684947,3.25744629 35.3983767,3.7298584 34.8179111,3.7298584 Z" id="Shape" fill="#0B1075"></path>
                <path d="M39.3704402,2.6751709 C39.3704402,3.25790402 38.9003223,3.7298584 38.3198566,3.7298584 C37.7398468,3.7298584 37.2692729,3.25790402 37.2692729,2.6751709 C37.2692729,2.09289551 37.7398468,1.6204834 38.3198566,1.6204834 C38.9003223,1.6204834 39.3704402,2.09289551 39.3704402,2.6751709 Z" id="Shape" fill="#0B1075"></path>
                <path d="M42.7839251,30.2137757 L37.1256384,24.55307 C36.9838278,24.4111634 36.7918592,24.3315124 36.5921388,24.3315124 L33.8434764,24.3315124 C33.8434764,26.6894531 31.9397496,28.6006165 29.5914397,28.6006165 C27.2426739,28.6006165 25.3389469,26.6894531 25.3389469,24.3315124 L22.5911965,24.3315124 C22.3901082,24.3315124 22.1981395,24.4120788 22.0563291,24.5544434 L16.4290492,30.2137757 C16.3077578,30.335083 16.3077578,30.5323792 16.4290492,30.6541443 L19.3806238,33.6172486 C19.5019151,33.7390137 19.6979876,33.7390137 19.8192789,33.6172486 L22.2779365,31.1489869 L22.2779365,42.9702759 C22.2779365,43.1423951 22.4165552,43.2815552 22.5880046,43.2815552 L36.5944188,43.2815552 C36.7654122,43.2815552 36.9044869,43.1423951 36.9044869,42.9702759 L36.9044869,31.1178588 L39.3936953,33.6172486 C39.5149867,33.7390137 39.711515,33.7390137 39.8328064,33.6172486 L42.7839251,30.6541443 C42.9047604,30.5323792 42.9047604,30.335083 42.7839251,30.2137757 Z" id="Shape" fill="#00E7FF"></path>
                <path d="M33.8434764,24.3315124 C33.8434764,26.6894531 31.9397496,28.6006165 29.5909837,28.6006165 C27.2422179,28.6006165 25.3389469,26.6894531 25.3389469,24.3315124 L26.2531919,24.3315124 C26.2531919,26.1827087 27.7474465,27.6828002 29.5909837,27.6828002 C31.4345209,27.6828002 32.9292315,26.182251 32.9292315,24.3315124 L33.8434764,24.3315124 Z" id="Shape" fill="#6770E6"></path>
                <path d="M32.9292315,24.3315124 C32.9292315,26.1827087 31.4345209,27.6828002 29.5909837,27.6828002 C27.7474465,27.6828002 26.2531919,26.182251 26.2531919,24.3315124 L32.9292315,24.3315124 Z" id="Shape" fill="#FFFFFF"></path>
                <g id="Group" transform="translate(16.225681, 29.765625)" fill="#6770E6">
                    <path d="M20.678806,13.2041931 L20.678806,12.598114 L6.05225556,12.598114 L6.05225556,13.2041931 C6.05225556,13.3763122 6.19087424,13.5159302 6.36232366,13.5159302 L20.3687379,13.5159302 C20.5397312,13.5159302 20.678806,13.3763122 20.678806,13.2041931 Z" id="Shape"></path>
                    <path d="M26.5596121,0.449523984 L26.1323566,0.0205993359 L22.7439507,3.42224121 L23.1707503,3.85116574 C23.2920416,3.97293094 23.4881141,3.97293094 23.6094054,3.85116574 L26.5596121,0.889434844 C26.6809034,0.7681275 26.6809034,0.570831328 26.5596121,0.449523984 Z" id="Shape"></path>
                    <path d="M0.203368249,0.449523984 L0.630623813,0.0205993359 L4.01902973,3.42224121 L3.59177405,3.85116574 C3.47093872,3.97293094 3.27441023,3.97293094 3.15311895,3.85116574 L0.203368249,0.889892578 C0.0820768482,0.7681275 0.0820768482,0.570831328 0.203368249,0.449523984 Z" id="Shape"></path>
                </g>
                <path d="M15.156858,5.390625 L20.4795416,5.390625 L19.0751155,12.2616577 L12.0238023,12.2616577 L13.8304049,6.37390137 C14.009606,5.78933719 14.5476654,5.390625 15.156858,5.390625 Z" id="Shape" fill="#00E7FF"></path>
                <polygon id="Shape" fill="#0B1075" points="20.4795416 5.390625 26.8272738 5.390625 26.1250609 12.2616577 19.0755714 12.2616577"></polygon>
                <polygon id="Shape" fill="#00E7FF" points="26.8272738 5.390625 33.17455 5.390625 33.8767632 12.2616577 26.1250609 12.2616577"></polygon>
                <polygon id="Shape" fill="#0B1075" points="33.17455 5.390625 39.5222824 5.390625 40.9267084 12.2616577 33.8767632 12.2616577"></polygon>
                <path d="M39.5222824,5.390625 L44.84451,5.390625 C45.4537026,5.390625 45.9922179,5.78979492 46.170963,6.37481695 L47.9743738,12.2616577 L40.9262524,12.2616577 L39.5222824,5.390625 Z" id="Shape" fill="#00E7FF"></path>
                <path d="M15.5512828,16.7518616 L15.5476349,16.7518616 C13.6015017,16.7518616 12.0238023,15.1679993 12.0238023,13.2142639 L12.0238023,12.2616577 L19.0751156,12.2616577 L19.0751155,13.2142639 C19.0755714,15.1679993 17.4978721,16.7518616 15.5512828,16.7518616 Z" id="Shape" fill="#00E7FF"></path>
                <path d="M22.603052,16.7518616 L22.5994041,16.7518616 C20.653271,16.7518616 19.0755714,15.1679993 19.0755714,13.2142639 L19.0755714,12.2616577 L26.1268847,12.2616577 L26.1268847,13.2142639 C26.1268847,15.1679993 24.5491854,16.7518616 22.603052,16.7518616 Z" id="Shape" fill="#0B1075"></path>
                <path d="M37.4046997,16.7518616 L37.4010518,16.7518616 C35.4544625,16.7518616 33.8767632,15.1679993 33.8767632,13.2142639 L33.8767632,12.2616577 L40.9285324,12.2616577 L40.9285324,13.2142639 C40.9285324,15.1679993 39.350833,16.7518616 37.4046997,16.7518616 Z" id="Shape" fill="#0B1075"></path>
                <path d="M44.4523651,16.7518616 C42.5062318,16.7518616 40.9285324,15.1679993 40.9285324,13.2142639 L40.9285324,12.2616577 L47.9766537,12.2616577 L47.9766537,13.2142639 C47.9761977,15.1679993 46.3989543,16.7518616 44.4523651,16.7518616 Z" id="Shape" fill="#00E7FF"></path>
                <path d="M30.3529305,16.7518616 L29.6507174,16.7518616 C27.7045842,16.7518616 26.1268847,15.1679993 26.1268847,13.2142639 L26.1268847,12.2616577 L33.8767632,12.2616577 L33.8767632,13.2142639 C33.8767632,15.1679993 32.2990637,16.7518616 30.3529305,16.7518616 Z" id="Shape" fill="#00E7FF"></path>
                <path d="M50.3113843,42.3963413 C49.6946507,42.3963413 49.1945183,42.9248806 49.1945183,43.5766439 L49.1945183,42.4784906 C49.1945183,41.8267272 48.6943859,41.2981879 48.0776524,41.2981879 C47.4609188,41.2981879 46.9607864,41.8267272 46.9607864,42.4784906 L46.9607864,41.6831357 C46.9607864,41.0310328 46.460654,40.502833 45.8439204,40.502833 C45.2271869,40.502833 44.7270545,41.0313724 44.7270545,41.6831357 L44.7270545,34.3945885 C44.7270545,33.7428251 44.2269221,33.2142857 43.6101886,33.2142857 C42.993455,33.2142857 42.4933226,33.7428251 42.4933226,34.3945885 L42.4933226,43.5257249 C42.4101278,42.815235 41.8361159,42.2534286 41.1287996,42.2534286 C41.0211924,42.2534286 40.9245066,42.3233573 40.8856396,42.4292689 L39.8712413,45.1996025 C39.72027,45.6120465 39.6428571,46.0509684 39.6428571,46.4932849 L39.6428571,49.5497834 C39.6428571,50.4554629 39.9669635,51.3271963 40.5502906,51.9905013 L42.9854246,54.7584587 L42.9854246,56.7857143 L49.9468048,56.7857143 L49.9468048,53.6443507 L49.9969144,53.6443507 L51.0604585,51.4018775 C51.302655,50.8920085 51.4285714,50.3288443 51.4285714,49.7582118 L51.4285714,43.5766439 C51.4282502,42.9248806 50.9281179,42.3963413 50.3113843,42.3963413 Z" id="Shape" fill="#00E7FF"></path>
                <polygon id="Shape" fill="#0B1075" points="50.3571429 56.7857143 50.3571429 54.6428571 42.8571429 54.6428571 42.8819773 54.684252 42.8819773 56.7857143"></polygon>
                <path d="M0.31462786,34.2150879 L4.76000125,37.7201843 C5.09970817,37.9884339 5.59764105,37.7453613 5.59764105,37.3118591 L5.59764105,35.2070618 L7.67920109,35.2070618 C8.44981156,35.2070618 9.07450751,34.5799255 9.07450751,33.806305 C9.07450751,33.4194947 8.91856156,33.0693054 8.6659472,32.8157044 C8.41333296,32.5621032 8.06450638,32.4055481 7.67920109,32.4050904 L5.59764105,32.4050904 L5.59764105,30.3007507 C5.59764105,29.8672486 5.09970817,29.6241761 4.76000125,29.8919678 L0.31462786,33.3979798 C0.0506140856,33.6058044 0.0506140856,34.0072631 0.31462786,34.2150879 Z" id="Shape" fill="#0B1075"></path>
                <path d="M59.6853721,34.2150879 L55.2399988,37.7201843 C54.9002918,37.9884339 54.4023589,37.7453613 54.4023589,37.3118591 L54.4023589,35.2070618 L52.3207989,35.2070618 C51.5501884,35.2070618 50.9254925,34.5799255 50.9254925,33.806305 C50.9254925,33.4194947 51.0818944,33.0693054 51.3345088,32.8157044 C51.5871231,32.5621032 51.9359497,32.4055481 52.3207989,32.4050904 L54.4023589,32.4050904 L54.4023589,30.3007507 C54.4023589,29.8672486 54.9002918,29.6241761 55.2399988,29.8919678 L59.6853721,33.397522 C59.9493859,33.6058044 59.9493859,34.0072631 59.6853721,34.2150879 Z" id="Shape" fill="#0B1075"></path>
                <path d="M0.31462786,34.2150879 L0.539427315,34.3922425 L4.76000125,31.0643005 C5.09970817,30.7960511 5.59764105,31.0391236 5.59764105,31.4730834 L5.59764105,33.5774231 L7.67920109,33.5774231 C8.06450638,33.5774231 8.41333296,33.7339782 8.6659472,33.9875794 C8.78131074,34.1038513 8.87569914,34.2411804 8.94500848,34.3922425 C9.0275414,34.2137146 9.07450751,34.0159607 9.07450751,33.806305 C9.07450751,33.4194947 8.91856156,33.0693054 8.6659472,32.8157044 C8.41333296,32.5621032 8.06450638,32.4055481 7.67920109,32.4055481 L5.59764105,32.4055481 L5.59764105,30.3012084 C5.59764105,29.8672486 5.09970817,29.6246338 4.76000125,29.8924255 L0.31462786,33.3979798 C0.0510700389,33.6058044 0.0510700389,34.0072631 0.31462786,34.2150879 Z" id="Shape" fill="#8F95E6"></path>
                <path d="M51.3345088,33.9880371 C51.5871231,33.7344361 51.9359497,33.5778809 52.3212549,33.5774231 L54.4028149,33.5774231 L54.4028149,31.4730834 C54.4028149,31.0395813 54.9007478,30.7965088 55.2399988,31.0643005 L59.4605727,34.3927002 L59.6853721,34.2155456 C59.9493859,34.0072631 59.9493859,33.6058044 59.6853721,33.3979798 L55.2399988,29.8928834 C54.9007478,29.6246338 54.4028149,29.8677063 54.4028149,30.3016663 L54.4028149,32.4060059 L52.3212549,32.4060059 C51.9359497,32.4060059 51.5871231,32.5625611 51.3345088,32.8161621 C51.0818944,33.0697631 50.9259484,33.4199524 50.9259484,33.8067627 C50.9259484,34.0164185 50.9729147,34.2141724 51.0549915,34.3927002 C51.1243009,34.2411804 51.2186893,34.1043091 51.3345088,33.9880371 Z" id="Shape" fill="#8F95E6"></path>
            </g>
        </g>
    </g>
</svg>