<?xml version="1.0" encoding="UTF-8"?>
<svg width="52px" height="56px" viewBox="0 0 52 56" version="1.1" xmlns="http://www.w3.org/2000/svg" xmlns:xlink="http://www.w3.org/1999/xlink">
    <!-- Generator: Sketch 49.2 (51160) - http://www.bohemiancoding.com/sketch -->
    <title>3d</title>
    <desc>Created with Sketch.</desc>
    <defs>
        <linearGradient x1="61.7859198%" y1="0%" x2="23.2115383%" y2="100%" id="linearGradient-1">
            <stop stop-color="#4A7BF1" offset="0%"></stop>
            <stop stop-color="#0B1075" offset="100%"></stop>
        </linearGradient>
        <linearGradient x1="100%" y1="56.469883%" x2="0%" y2="35.8262937%" id="linearGradient-2">
            <stop stop-color="#4A7BF1" offset="0%"></stop>
            <stop stop-color="#0B1075" offset="100%"></stop>
        </linearGradient>
    </defs>
    <g id="Page-1" stroke="none" stroke-width="1" fill="none" fill-rule="evenodd">
        <g id="Artboard" transform="translate(-571.000000, -683.000000)" fill-rule="nonzero">
            <g id="3d" transform="translate(571.000000, 683.000000)">
                <path d="M25.9764306,0 C25.9760021,0 25.9751451,0 25.9747165,0 C25.9584323,0 25.9417194,0.000427246094 25.9254351,0.00128174375 C25.9074367,0.002136225 25.8894383,0.00427246094 25.8714399,0.0068359375 C25.854727,0.0089721625 25.8380143,0.0111083438 25.82173,0.0140990938 C25.8041601,0.0175170625 25.7870188,0.0217895781 25.7698774,0.0264893125 C25.7527361,0.0307617188 25.7364517,0.035034125 25.7197389,0.0405884063 C25.7030261,0.0461425781 25.6867418,0.0521239688 25.6704576,0.0589599063 C25.6537447,0.065368625 25.6374604,0.0722045625 25.6207477,0.0798950469 C25.6147481,0.0828856875 25.6083202,0.085022 25.6018922,0.0884399688 L0.450389004,12.8635254 C0.173984759,13.0040893 0,13.2869263 0,13.5966797 L0,42.4016113 C0,42.6874389 0.149129747,42.9531861 0.393822549,43.1027221 C0.460245198,43.1433105 0.530524844,43.173645 0.602947021,43.1937255 L25.9764306,30.3058471 L25.9764306,0 Z" id="Shape" fill="url(#linearGradient-1)"></path>
                <path d="M51.5020438,12.8635254 L26.3509692,0.0884399687 C26.3445411,0.085022 26.3381131,0.0833130156 26.3321137,0.0803222656 C26.3154008,0.0722045625 26.2982595,0.0649414062 26.2811181,0.0581054687 C26.2656909,0.0521239687 26.2498352,0.0461425781 26.2339794,0.0405884062 C26.2164095,0.035034125 26.1988397,0.0303345 26.1808413,0.0256347656 C26.1649855,0.0217895781 26.1487012,0.0175170625 26.1328455,0.0145263125 C26.114847,0.0111083437 26.0964201,0.00854492188 26.0784217,0.00640869687 C26.0621374,0.00427246094 26.0458531,0.002136225 26.0295688,0.00128174375 C26.0115704,0.000427246094 25.9940005,0 25.9764306,0 L25.9764306,30.3054199 L51.3494857,43.1932983 C51.4223365,43.1732177 51.492616,43.1428833 51.5586102,43.1027221 C51.8037316,42.9531861 51.9528612,42.6874389 51.9528612,42.4011841 L51.9528612,13.5962525 C51.9528612,13.2869263 51.7788766,13.0040893 51.5020438,12.8635254 Z" id="Shape" fill="url(#linearGradient-2)"></path>
                <path d="M38.3889109,18.5864868 C37.6586894,17.7849732 36.6164953,17.3414917 35.5323049,17.3726807 C34.4468289,17.4025879 33.4316324,17.9016113 32.7472639,18.7415771 L29.0241627,23.3092651 C28.9046017,23.4558105 28.8394646,23.6390991 28.8394646,23.8279419 L28.8394646,31.7597656 L51.3494857,43.1932983 C51.4223365,43.1732177 51.492616,43.1428833 51.5586102,43.1027221 C51.803303,42.9531861 51.9524327,42.6874389 51.9524327,42.4011841 L51.9524327,33.3166504 L38.3889109,18.5864868 Z" id="Shape" fill="#00E7FF"></path>
                <path d="M35.5323049,17.3726807 C34.8509362,17.3914794 34.1969937,17.5952759 33.6351859,17.9524536 L51.9528612,37.8300781 L51.9528612,33.3166504 L38.3889109,18.5864868 C37.6586894,17.7849732 36.6164953,17.3414917 35.5323049,17.3726807 Z" id="Shape" fill="#0C1076"></path>
                <polygon id="Shape" fill="#00E7FF" points="25.9764306 18.5189819 25.9768591 29.6260987 46.3857793 39.9927979"></polygon>
                <polygon id="Shape" fill="#0C1076" points="25.9768591 18.5194091 25.9768591 22.364624 39.1311313 36.3078003 46.3857793 39.9927979"></polygon>
                <path d="M25.9764306,30.3054199 L25.9764306,18.5189819 L25.0336564,17.4760742 C25.0289426,17.47052 25.0242287,17.4653931 25.0190863,17.4602661 C24.3295755,16.736084 23.3615177,16.3524169 22.3596057,16.4092407 C21.359408,16.4660645 20.4397745,16.9556885 19.8368275,17.7529297 L16.9729365,21.5387573 C16.8645174,21.6814575 16.8062368,21.8553466 16.8062368,22.0339355 L16.8062368,34.9636841 L25.9764306,30.3054199 Z" id="Shape" fill="#00E7FF"></path>
                <path d="M14.6515691,18.0759277 C13.996341,17.4555664 13.1045622,17.1347046 12.2024987,17.1958008 C11.3008637,17.256897 10.4600804,17.6956787 9.89441585,18.4002075 L0,30.7843628 L0,42.4016113 C0,42.6874389 0.149129747,42.9531861 0.394251055,43.1027221 C0.460245198,43.1433105 0.530524844,43.173645 0.603375527,43.1937255 L25.9764306,30.3058471 L25.9764306,28.6874389 L14.6515691,18.0759277 Z" id="Shape" fill="#00E7FF"></path>
                <path d="M12.2024987,17.1958008 C11.4405656,17.2474975 10.7232002,17.5692138 10.1772481,18.0925904 C14.2144646,21.7596435 22.1179127,28.9326782 24.4975607,31.0565185 L25.9764306,30.3054199 L25.9764306,28.6874389 L14.6515691,18.0759277 C13.996341,17.4555664 13.1045622,17.1347046 12.2024987,17.1958008 Z" id="Shape" fill="#0C1076"></path>
                <path d="M25.0190863,17.4602661 C24.3295755,16.736084 23.3615177,16.3524169 22.3596057,16.4092407 C21.6975211,16.4468384 21.0714333,16.6749878 20.5481936,17.0556641 L25.9764306,22.3637695 L25.9764306,18.5189819 L25.0336564,17.4760742 C25.0289426,17.47052 25.0242287,17.4653931 25.0190863,17.4602661 Z" id="Shape" fill="#0C1076"></path>
                <path d="M33.8785931,8.99523931 C32.1713146,8.99523931 30.7824367,10.3799439 30.7824367,12.0820923 C30.7824367,13.7838135 32.1713146,15.1689453 33.8785931,15.1689453 C35.5858715,15.1689453 36.9747494,13.7842408 36.9747494,12.0820923 C36.9747494,10.3799439 35.5858715,8.99523931 33.8785931,8.99523931 Z" id="Shape" fill="#FFFFFF"></path>
                <path d="M51.5020438,41.6693115 L26.3513977,28.894226 C26.1195609,28.7763061 25.8333004,28.7763061 25.6014637,28.894226 L0.450389004,41.6693115 C0.173984759,41.8098755 0,42.0927124 0,42.4020385 C0,42.7113647 0.173984759,42.9946289 0.450389004,43.1351928 L25.5980354,55.9085693 C25.6468882,55.9337768 25.6978837,55.9538574 25.7497363,55.9683838 C25.8255867,55.9897461 25.8992945,55.9995728 25.9730023,56 C26.0561379,55.9995728 26.1328455,55.9888917 26.2069818,55.9675293 C26.2588344,55.9521484 26.3076873,55.9324951 26.3543974,55.9085693 L51.5020438,43.1351928 C51.7788766,42.9946289 51.9528612,42.7113647 51.9528612,42.4020385 C51.9528612,42.0927124 51.7788766,41.8098755 51.5020438,41.6693115 Z" id="Shape" fill="#0C1076"></path>
                <path d="M45.3748681,46.2472534 L47.1871374,45.3269654 L40.9738265,42.1405639 L46.6716113,39.2156372 L44.8601991,38.2957763 L39.1705565,41.2160034 L34.5226793,38.8323974 L40.1788964,35.9177246 L38.3691983,34.9987182 L32.7215519,37.9086914 L27.7801292,35.3746948 L33.4179194,32.4835206 L31.60565,31.5632324 L25.9764306,34.449707 L20.3472112,31.5632324 L18.534942,32.4835206 L24.1727321,35.3746948 L19.2313093,37.9086914 L13.5836629,34.9987182 L11.773965,35.9181518 L17.4301819,38.8323974 L12.7818763,41.2160034 L7.0922337,38.2957763 L5.28082149,39.2160645 L10.9790348,42.1405639 L4.76572386,45.3269654 L6.5779932,46.2472534 L12.7818763,43.0655518 L17.7567247,45.6192017 L11.5935523,48.7949219 L13.4032502,49.7139282 L19.5574236,46.5433349 L24.1740177,48.9128418 L18.0318434,52.0650635 L19.843684,52.9853516 L25.9764306,49.8378296 L32.1091772,52.9853516 L33.9205894,52.0650635 L27.7784151,48.9128418 L32.3954378,46.5433349 L38.5491825,49.7139282 L40.3588806,48.7949219 L34.195708,45.6192017 L39.1705565,43.0655518 L45.3748681,46.2472534 Z M25.9764306,36.2996826 L30.9221388,38.8358154 L25.9764306,41.3839112 L21.0307226,38.8358154 L25.9764306,36.2996826 Z M19.5557093,44.6925049 L14.5851464,42.1409912 L19.2295952,39.7595215 L24.1795886,42.3097534 L19.5557093,44.6925049 Z M25.9764306,47.987854 L21.3559797,45.6162109 L25.9764306,43.2355957 L30.5968816,45.6162109 L25.9764306,47.987854 Z M32.3971519,44.6925049 L27.7732726,42.3097534 L32.7232661,39.7595215 L37.367715,42.1409912 L32.3971519,44.6925049 Z" id="Shape" stroke="#0C1076" stroke-width="0.300000012" fill="#00E7FF" opacity="0.200000018"></path>
            </g>
        </g>
    </g>
</svg>