<?xml version="1.0" encoding="UTF-8"?>
<svg width="58px" height="56px" viewBox="0 0 58 56" version="1.1" xmlns="http://www.w3.org/2000/svg" xmlns:xlink="http://www.w3.org/1999/xlink">
    <!-- Generator: Sketch 49.2 (51160) - http://www.bohemiancoding.com/sketch -->
    <title>hospital</title>
    <desc>Created with Sketch.</desc>
    <defs>
        <linearGradient x1="61.7859198%" y1="0%" x2="23.2115383%" y2="100%" id="linearGradient-1">
            <stop stop-color="#4A7BF1" offset="0%"></stop>
            <stop stop-color="#0B1075" offset="100%"></stop>
        </linearGradient>
    </defs>
    <g id="Page-1" stroke="none" stroke-width="1" fill="none" fill-rule="evenodd">
        <g id="Artboard" transform="translate(-568.000000, -405.000000)" fill-rule="nonzero">
            <g id="hospital" transform="translate(568.000000, 405.000000)">
                <polygon id="Shape" fill="#142087" points="54.0295157 23.4511099 54.0295157 52.0930233 40.5523372 52.0930233 40.5523372 17.9957717"></polygon>
                <polygon id="Shape" fill="url(#linearGradient-1)" points="40.5523372 5.91966173 40.5523372 52.0930233 17.4486028 52.0930233 17.4486028 5.91966173 29.00047 0.947145877"></polygon>
                <polygon id="Shape" fill="#142087" points="17.4486028 17.9957717 17.4486028 52.0930233 3.97142437 52.0930233 3.97142437 23.4511099"></polygon>
                <path d="M44.4029596,8.5243129 C44.2704065,8.52477534 44.1387935,8.49795193 44.0179915,8.44476744 L29.00047,1.98123679 L13.9829487,8.44476744 C13.5002107,8.63484411 12.9507261,8.41331924 12.7429656,7.94437098 C12.5347349,7.47542283 12.7429656,6.92877913 13.2130122,6.7095666 L28.6155019,0.0795454545 C28.8608662,-0.0258985201 29.1400739,-0.0258985201 29.3854383,0.0795454545 L44.7879279,6.7095666 C45.2048593,6.88900634 45.4370623,7.33205608 45.3439932,7.77048091 C45.2509239,8.20936842 44.8584348,8.52385045 44.4029596,8.5243129 Z" id="Shape" fill="#0B1075"></path>
                <path d="M17.0819664,17.1193842 L0.716821158,23.7494054 C0.224682373,23.9487315 -0.00987095021,24.5027749 0.192719079,24.9865222 C0.395309228,25.4702695 0.958425212,25.7010438 1.45009398,25.5017178 L17.4486028,19.0206131 L17.4486028,17.0486258 C17.3226303,17.0490882 17.1980679,17.0731369 17.0819664,17.1193842 Z" id="Shape" fill="#0B1075"></path>
                <path d="M57.2841189,23.749404 L40.9189736,17.119378 C40.8028722,17.0726682 40.6778397,17.0481571 40.5523372,17.0486131 L40.5523372,19.0187584 L56.5508461,25.4998678 C57.0425149,25.699194 57.6051608,25.4684196 57.8077509,24.9846719 C58.0103411,24.5009241 57.7757878,23.9468804 57.2841189,23.7475541 L57.2841189,23.749404 Z" id="Shape" fill="#0B1075"></path>
                <g id="Group" transform="translate(7.821577, 26.520085)" fill="#00E7FF">
                    <polygon id="Shape" points="36.5813829 0 42.3573165 0 42.3573165 3.78858351 36.5813829 3.78858351"></polygon>
                    <polygon id="Shape" points="15.4029596 0 26.9548269 0 26.9548269 3.78858351 15.4029596 3.78858351"></polygon>
                    <polygon id="Shape" points="36.5813829 8.5243129 42.3573165 8.5243129 42.3573165 12.3128964 36.5813829 12.3128964"></polygon>
                    <polygon id="Shape" points="36.5813829 17.0486258 42.3573165 17.0486258 42.3573165 20.8372093 36.5813829 20.8372093"></polygon>
                    <polygon id="Shape" points="0.000470016569 0 5.77640363 0 5.77640363 3.78858351 0.000470016569 3.78858351"></polygon>
                    <polygon id="Shape" points="0.000470016569 8.5243129 5.77640363 8.5243129 5.77640363 12.3128964 0.000470016569 12.3128964"></polygon>
                    <polygon id="Shape" points="0.000470016569 17.0486258 5.77640363 17.0486258 5.77640363 20.8372093 0.000470016569 20.8372093"></polygon>
                    <polygon id="Shape" points="15.4029596 8.5243129 26.9548269 8.5243129 26.9548269 25.5729387 15.4029596 25.5729387"></polygon>
                </g>
                <path d="M34.7764036,13.2600423 C34.7764036,16.3983879 32.1902069,18.9429175 29.00047,18.9429175 C25.8102633,18.9429175 23.2245364,16.3983879 23.2245364,13.2600423 C23.2245364,10.1212341 25.8102633,7.57716702 29.00047,7.57716702 C32.1902069,7.57716702 34.7764036,10.1212341 34.7764036,13.2600423 Z" id="Shape" fill="#FFFFFF"></path>
                <path d="M31.8884368,12.3128964 L29.9631256,12.3128964 L29.9631256,10.4186047 C29.9631256,9.89554701 29.5320928,9.47145877 29.00047,9.47145877 C28.4688473,9.47145877 28.0378144,9.89554701 28.0378144,10.4186047 L28.0378144,12.3128964 L26.1125032,12.3128964 C25.5808805,12.3128964 25.1498476,12.7369846 25.1498476,13.2600423 C25.1498476,13.7830999 25.5808805,14.2071882 26.1125032,14.2071882 L28.0378144,14.2071882 L28.0378144,16.1014799 C28.0378144,16.6245376 28.4688473,17.0486258 29.00047,17.0486258 C29.5320928,17.0486258 29.9631256,16.6245376 29.9631256,16.1014799 L29.9631256,14.2071882 L31.8884368,14.2071882 C32.4200596,14.2071882 32.8510924,13.7830999 32.8510924,13.2600423 C32.8510924,12.7369846 32.4200596,12.3128964 31.8884368,12.3128964 Z" id="Shape" fill="#0B1075"></path>
                <polygon id="Shape" fill="#0B1075" points="1.08345757 52.0930233 56.9174825 52.0930233 56.9174825 55.8816068 1.08345757 55.8816068"></polygon>
            </g>
        </g>
    </g>
</svg>