<?xml version="1.0" encoding="UTF-8"?>
<svg width="57px" height="57px" viewBox="0 0 57 57" version="1.1" xmlns="http://www.w3.org/2000/svg" xmlns:xlink="http://www.w3.org/1999/xlink">
    <!-- Generator: Sketch 49.2 (51160) - http://www.bohemiancoding.com/sketch -->
    <title>it</title>
    <desc>Created with Sketch.</desc>
    <defs>
        <linearGradient x1="61.7859198%" y1="0%" x2="23.2115383%" y2="100%" id="linearGradient-1">
            <stop stop-color="#4A7BF1" offset="0%"></stop>
            <stop stop-color="#0B1075" offset="100%"></stop>
        </linearGradient>
    </defs>
    <g id="Page-1" stroke="none" stroke-width="1" fill="none" fill-rule="evenodd">
        <g id="Artboard" transform="translate(-569.000000, -310.000000)">
            <g id="it" transform="translate(569.000000, 311.000000)">
                <path d="M55.0967742,28 C55.0967742,42.9649698 42.9649698,55.0967742 28,55.0967742 C13.0350302,55.0967742 0.903225806,42.9649698 0.903225806,28 C0.903225806,13.0350302 13.0350302,0.903225806 28,0.903225806 C42.9649698,0.903225806 55.0967742,13.0350302 55.0967742,28 Z" id="Shape" fill="url(#linearGradient-1)" fill-rule="nonzero"></path>
                <polyline id="Path-2" stroke="#0B1075" stroke-width="2" stroke-linecap="round" stroke-linejoin="round" points="32 41 38 41 38 22 42 22 42 26 45 28 45 31"></polyline>
                <path d="M45.1612903,31.6129032 C47.1573841,31.6129032 48.7741935,33.2297126 48.7741935,35.2258065 C48.7741935,37.2219003 47.1573841,38.8387097 45.1612903,38.8387097 C43.1651965,38.8387097 41.5483871,37.2219003 41.5483871,35.2258065 C41.5483871,33.2297126 43.1651965,31.6129032 45.1612903,31.6129032 Z" id="Shape" fill="#FFFFFF" fill-rule="nonzero"></path>
                <g id="Group" transform="translate(3.612903, 26.193548)" fill="#00E7FF" fill-rule="nonzero">
                    <path d="M16.2580645,12.1935484 L16.2580645,14 C16.2580645,15.2463457 15.2463457,16.2580645 14,16.2580645 L11.2903226,16.2580645 C10.0439769,16.2580645 9.03225806,17.2697833 9.03225806,18.516129 C9.03225806,19.7624747 8.02053926,20.7741935 6.77419355,20.7741935 L5.04889113,20.7741935 C3.01663306,18.7150328 1.32793602,16.3303931 0.0361642581,13.7018649 C0.0361642581,13.7018649 0.0361642581,13.7018649 0.0361642581,13.6930444 C0.162739387,11.3445691 0.840158742,9.14075106 1.95110887,7.22580645 L3.68523185,7.22580645 C5.41053427,7.22580645 7.09923132,7.69550148 8.58064516,8.58064516 C10.062059,9.46578884 11.750756,9.93548387 13.4760585,9.93548387 L14,9.93548387 C15.2463457,9.93548387 16.2580645,10.9472027 16.2580645,12.1935484 Z" id="Shape"></path>
                    <path d="M28.7766507,16.2580645 L28.7947328,16.2580645 C28.0811492,21.984375 24.0166331,26.6632434 18.6334425,28.280053 C15.6798765,27.6476184 12.907132,26.5278478 10.3959173,25.0014491 C10.8475302,24.7575605 11.2091734,24.3690146 11.407636,23.8724168 L12.0762349,22.1920993 C12.4193548,21.3342995 13.250252,20.7741935 14.17156,20.7741935 L17.6129032,20.7741935 C18.8592489,20.7741935 19.8709677,19.7624747 19.8709677,18.516129 C19.8709677,17.2697833 20.8826865,16.2580645 22.1290323,16.2580645 L28.7766507,16.2580645 Z" id="Shape"></path>
                    <path d="M28.7859124,12.6451613 L24.2155368,12.6451613 C22.1290323,12.6451613 20.2414315,11.3988156 19.4193548,9.48387097 C18.5972782,7.56892635 16.7096774,6.32258065 14.6231729,6.32258065 L14.5962702,6.32258065 C12.3562878,6.32258065 10.3601941,4.88659274 9.64661035,2.75466235 L9.077243,1.0386215 C10.7394784,0.37046371 12.54593,0 14.4516129,0 C21.8220766,0 27.9007687,5.51858616 28.7859124,12.6451613 Z" id="Shape"></path>
                </g>
                <path d="M32.516129,40.6451613 C32.516129,41.2595136 32.4799648,41.8646043 32.407636,42.4516129 L25.7419355,42.4516129 C24.4955898,42.4516129 23.483871,43.4633317 23.483871,44.7096774 C23.483871,45.9560231 22.4721522,46.9677419 21.2258065,46.9677419 L17.7844632,46.9677419 C16.8631552,46.9677419 16.0322581,47.5278478 15.6891382,48.3856477 L15.0205393,50.0659652 C14.8220766,50.562563 14.4604335,50.9511089 14.0088206,51.1949975 C12.0400706,50.0205393 10.2517011,48.6026336 8.66179435,46.9677419 L10.3870968,46.9677419 C11.6334425,46.9677419 12.6451613,45.9560231 12.6451613,44.7096774 C12.6451613,43.4633317 13.6568801,42.4516129 14.9032258,42.4516129 L17.6129032,42.4516129 C18.8592489,42.4516129 19.8709677,41.4398941 19.8709677,40.1935484 L19.8709677,38.3870968 C19.8709677,37.1407511 18.8592489,36.1290323 17.6129032,36.1290323 L17.0889617,36.1290323 C15.3636593,36.1290323 13.6749622,35.6593372 12.1935484,34.7741935 C10.7121345,33.8890499 9.0234375,33.4193548 7.29813508,33.4193548 L5.5640121,33.4193548 C7.17155995,30.6373488 9.67351316,28.4335308 12.6901462,27.2321699 L13.2595136,28.9482107 C13.9730973,31.0801411 15.969191,32.516129 18.2091734,32.516129 L18.2360761,32.516129 C20.3225806,32.516129 22.2101815,33.7624747 23.0322581,35.6774194 C23.8543347,37.592364 25.7419355,38.8387097 27.82844,38.8387097 L32.3988156,38.8387097 C32.4799648,39.4349798 32.516129,40.030809 32.516129,40.6451613 Z" id="Shape" fill="#0B1075" fill-rule="nonzero"></path>
                <path d="M46.796182,8.21018145 C47.1485635,8.15593495 47.5097656,8.12903226 47.8709677,8.12903226 C51.8631552,8.12903226 55.0967742,11.3626512 55.0967742,15.3548387 C55.0967742,16.9174017 54.6001764,18.3626512 53.750756,19.54593 C52.4501638,21.3792843 50.3005922,22.5806452 47.8709677,22.5806452 L20.7741935,22.5806452 C17.7844632,22.5806452 15.3548387,20.1510207 15.3548387,17.1612903 C15.3548387,14.17156 17.7844632,11.7419355 20.7741935,11.7419355 C21.108493,11.7419355 21.4427923,11.7688382 21.7585685,11.8323462 C21.704322,11.5073085 21.6774194,11.1818296 21.6774194,10.8387097 C21.6774194,7.3431199 24.5044102,4.51612903 28,4.51612903 C28.8401587,4.51612903 29.6529738,4.68768898 30.3846396,4.98582406 C31.3421118,3.52249247 32.7150328,2.35729584 34.3406628,1.65297379 C35.4427923,1.17401719 36.6529738,0.903225806 37.9354839,0.903225806 C42.2981351,0.903225806 45.937941,4.00144906 46.7869204,8.11095013 L46.796182,8.21018145 Z" id="Shape" stroke="#0B1075" stroke-width="2" fill="#00E7FF" fill-rule="nonzero"></path>
                <path d="M46.0645161,35.2258065 C46.0645161,35.7246094 45.6600933,36.1290323 45.1612903,36.1290323 C44.6624874,36.1290323 44.2580645,35.7246094 44.2580645,35.2258065 C44.2580645,34.7270035 44.6624874,34.3225806 45.1612903,34.3225806 C45.6600933,34.3225806 46.0645161,34.7270035 46.0645161,35.2258065 Z" id="Shape" fill="#232323" fill-rule="nonzero"></path>
            </g>
        </g>
    </g>
</svg>