<?xml version="1.0" encoding="UTF-8"?>
<svg width="56px" height="56px" viewBox="0 0 56 56" version="1.1" xmlns="http://www.w3.org/2000/svg" xmlns:xlink="http://www.w3.org/1999/xlink">
    <!-- Generator: Sketch 49.2 (51160) - http://www.bohemiancoding.com/sketch -->
    <title>retail</title>
    <desc>Created with Sketch.</desc>
    <defs>
        <linearGradient x1="61.7859198%" y1="0%" x2="23.2115383%" y2="100%" id="linearGradient-1">
            <stop stop-color="#4A7BF1" offset="0%"></stop>
            <stop stop-color="#0B1075" offset="100%"></stop>
        </linearGradient>
    </defs>
    <g id="Page-1" stroke="none" stroke-width="1" fill="none" fill-rule="evenodd">
        <g id="Artboard" transform="translate(-569.000000, -860.000000)" fill-rule="nonzero">
            <g id="retail" transform="translate(569.000000, 860.000000)">
                <path d="M53.6186614,8.74213546 L2.331251,8.74213546 C1.04905179,8.74213546 0,9.79118725 0,11.0733865 L0,45.809004 C0,47.0912032 1.04905179,48.140255 2.331251,48.140255 L53.6186614,48.140255 C54.9008606,48.140255 55.9499124,47.0912032 55.9499124,45.809004 L55.9499124,11.0733865 C55.9499124,9.79118725 54.9008606,8.74213546 53.6186614,8.74213546 Z" id="Shape" fill="#0B1075"></path>
                <rect id="Rectangle-path" fill="url(#linearGradient-1)" x="3.49687649" y="12.239012" width="48.9561594" height="32.2877928"></rect>
                <rect id="Rectangle-path" fill="url(#linearGradient-1)" x="17.2512351" y="48.140255" width="21.3308685" height="6.29442231"></rect>
                <rect id="Rectangle-path" fill="#0B1075" x="10.8403506" y="54.4345657" width="34.2693227" height="1.51534661"></rect>
                <rect id="Rectangle-path" fill="#3557C8" x="17.2512351" y="48.140255" width="21.3308685" height="1.74838247"></rect>
                <path d="M48.2568287,13.0550279 L48.2568287,42.6618486 C48.2568287,43.7109004 47.4409243,44.5268048 46.3918725,44.5268048 L9.44157769,44.5268048 C8.3925259,44.5268048 7.57662151,43.7109004 7.57662151,42.6618486 L7.57662151,13.0550279 L48.2568287,13.0550279 Z" id="Shape" fill="#00E7FF"></path>
                <g id="Group" transform="translate(17.290837, 21.306773)" fill="#FFFFFF">
                    <path d="M18.377259,3.2878247 L15.2301036,6.43498008 C15.1135299,6.31840637 14.9969562,6.20183267 14.8803825,6.08525896 L18.0275378,2.93810359 L18.377259,3.2878247 Z" id="Shape"></path>
                    <path d="M6.37128287,15.4103745 L3.22412749,18.5575299 L2.87440637,18.2078088 L6.02156175,15.0606534 C6.13813546,15.1772271 6.25470916,15.2938008 6.37128287,15.4103745 Z" id="Shape"></path>
                    <path d="M18.377259,18.0913466 L18.0275378,18.4410677 L14.9969562,15.4104861 C15.1135299,15.2939124 15.2301036,15.1773386 15.3466773,15.0607649 L18.377259,18.0913466 Z" id="Shape"></path>
                    <path d="M6.37128287,6.08537052 C6.25470916,6.20194422 6.13813546,6.31851793 6.02156175,6.43509163 L2.87440637,3.28793625 L3.22412749,2.93821514 L6.37128287,6.08537052 Z" id="Shape"></path>
                    <path d="M8.46938645,4.80317131 C8.35281275,4.80317131 8.23623904,4.91974502 8.00309163,5.03631873 L6.95403984,2.58849402 L7.42033466,2.35534661 L8.46938645,4.80317131 Z" id="Shape"></path>
                    <path d="M14.2975139,19.0238247 L13.8312191,19.2569721 L12.7821673,16.8091474 C12.898741,16.8091474 13.0153147,16.6925737 13.2484622,16.576 L14.2975139,19.0238247 Z" id="Shape"></path>
                    <path d="M4.97262151,8.0669004 C4.85604781,8.1834741 4.85604781,8.30004781 4.7394741,8.53319522 L2.2916494,7.48414343 L2.52479681,7.01784861 L4.97262151,8.0669004 Z" id="Shape"></path>
                    <path d="M19.0765896,14.0116016 L18.8434422,14.4778964 L16.3956175,13.4288446 C16.5121912,13.3122709 16.5121912,13.1956972 16.6287649,12.9625498 L19.0765896,14.0116016 Z" id="Shape"></path>
                    <path d="M4.97262151,13.3122709 L2.52479681,14.3613227 L2.2916494,13.8950279 L4.7394741,12.8459761 C4.85604781,13.0791235 4.85604781,13.1956972 4.97262151,13.3122709 Z" id="Shape"></path>
                    <path d="M19.0765896,7.48414343 L16.6287649,8.53319522 C16.6287649,8.41662151 16.5121912,8.30004781 16.3956175,8.0669004 L18.8434422,7.01784861 L19.0765896,7.48414343 Z" id="Shape"></path>
                    <path d="M8.46938645,16.6925737 L7.42033466,19.1403984 L6.95403984,18.907251 L8.00309163,16.4594263 C8.2363506,16.576 8.3529243,16.576 8.46938645,16.6925737 Z" id="Shape"></path>
                    <path d="M14.2975139,2.47192032 L13.3650359,4.91974502 C13.2484622,4.80317131 13.1318884,4.80317131 12.898741,4.68659761 L13.9477928,2.23877291 L14.2975139,2.47192032 Z" id="Shape"></path>
                </g>
                <path d="M45.9255777,0 L10.0243347,0 C8.74213546,0 7.69308367,1.04905179 7.69308367,2.331251 L7.69308367,8.3925259 L48.3732908,8.3925259 L48.3732908,2.331251 C48.2568287,1.04905179 47.2077769,0 45.9255777,0 Z" id="Shape" fill="#00E7FF"></path>
                <polygon id="Shape" fill="#FFFFFF" points="38.6508526 36.1392988 40.1954374 41.6672987 41.5774957 40.2853182 42.8781741 41.6672987 44.0975503 40.4479224 42.7968719 39.0659419 44.0975503 37.6838836"></polygon>
                <circle id="Oval" fill="#F8B64C" cx="22.9627888" cy="4.19620717" r="1.39877291"></circle>
                <circle id="Oval" fill="#FF7058" cx="17.6009562" cy="4.19620717" r="1.39877291"></circle>
                <circle id="Oval" fill="#F8B64C" cx="12.239012" cy="4.19620717" r="1.39877291"></circle>
                <path d="M48.2568287,13.987506 L48.2568287,19.4659124 C47.557498,20.0486693 46.6249084,20.2818167 45.6924303,20.2818167 C43.2446056,20.2818167 41.2630757,18.3002869 41.2630757,15.8524622 C41.2630757,18.3002869 39.2815458,20.2818167 36.8337211,20.2818167 C34.3858964,20.2818167 32.4043665,18.3002869 32.4043665,15.8524622 C32.4043665,18.3002869 30.4228367,20.2818167 27.975012,20.2818167 C25.5271873,20.2818167 23.5456574,18.3002869 23.5456574,15.8524622 C23.5456574,18.3002869 21.5641275,20.2818167 19.1163028,20.2818167 C16.6684781,20.2818167 14.6869482,18.3002869 14.6869482,15.8524622 C14.6869482,18.3002869 12.7054183,20.2818167 10.2575936,20.2818167 C9.32511554,20.2818167 8.39263745,19.9320956 7.69319522,19.4659124 L7.69319522,13.987506 C7.69319522,13.987506 48.2568287,13.987506 48.2568287,13.987506 Z" id="Shape" fill="#E4EAEF"></path>
                <polygon id="Shape" fill="#416BDF" points="14.6868367 13.0550279 5.82812749 13.0550279 7.69308367 8.3925259 15.7358884 8.3925259"></polygon>
                <polygon id="Shape" fill="#CDD6E0" points="23.5455458 13.0550279 14.6868367 13.0550279 15.7358884 8.3925259 23.8952669 8.3925259"></polygon>
                <polygon id="Shape" fill="#416BDF" points="32.4043665 13.0550279 23.5455458 13.0550279 23.8952669 8.3925259 32.0546454 8.3925259"></polygon>
                <polygon id="Shape" fill="#CDD6E0" points="41.2630757 13.0550279 32.4043665 13.0550279 32.0546454 8.3925259 40.2140239 8.3925259"></polygon>
                <polygon id="Shape" fill="#416BDF" points="50.1217849 13.0550279 41.2630757 13.0550279 40.2140239 8.3925259 48.2568287 8.3925259"></polygon>
                <g id="Group" transform="translate(14.613546, 13.051793)" fill="#ACB3BA">
                    <path d="M0.0732908367,1.98476494 C0.0732908367,4.43258964 2.05482072,6.41411952 4.50264542,6.41411952 C6.95047012,6.41411952 8.932,4.43258964 8.932,1.98476494 L8.932,0.00323505951 L0.0732908367,0.00323505951 L0.0732908367,1.98476494 Z" id="Shape"></path>
                    <path d="M17.7908207,0.00323505951 L17.7908207,1.98476494 C17.7908207,4.43258964 19.7723506,6.41411952 22.2201753,6.41411952 C24.668,6.41411952 26.6495299,4.43258964 26.6495299,1.98476494 L26.6495299,0.00323505951 C26.6495299,0.00323505951 17.7908207,0.00323505951 17.7908207,0.00323505951 Z" id="Shape"></path>
                </g>
                <g id="Group" transform="translate(5.800797, 13.051793)" fill="#416BDF">
                    <path d="M0.0273306773,1.98476494 C0.0273306773,4.43258964 2.00886056,6.41411952 4.45668526,6.41411952 C6.90450996,6.41411952 8.88603984,4.43258964 8.88603984,1.98476494 L8.88603984,0.00323505951 L0.0273306773,0.00323505951 L0.0273306773,1.98476494 Z" id="Shape"></path>
                    <path d="M17.744749,1.98476494 C17.744749,4.43258964 19.7262789,6.41411952 22.1741036,6.41411952 C24.6219283,6.41411952 26.6034582,4.43258964 26.6034582,1.98476494 L26.6034582,0.00323505951 L17.744749,0.00323505951 L17.744749,1.98476494 Z" id="Shape"></path>
                    <path d="M35.4622789,0.00323505951 L35.4622789,1.98476494 C35.4622789,4.43258964 37.4438088,6.41411952 39.8916335,6.41411952 C42.3394582,6.41411952 44.320988,4.43258964 44.320988,1.98476494 L44.320988,0.00323505951 C44.320988,0.00323505951 35.4622789,0.00323505951 35.4622789,0.00323505951 Z" id="Shape"></path>
                </g>
                <ellipse id="Oval" fill="#0B1075" cx="27.975012" cy="32.0546454" rx="6.87717928" ry="6.99375299"></ellipse>
                <g id="Group" transform="translate(23.203187, 27.665339)" fill="#FFFFFF">
                    <path d="M3.6061992,6.48741036 L3.37305179,5.67150598 L8.73488446,5.67150598 L8.73488446,1.59187251 L2.324,1.59187251 L1.97427888,0.0765258964 L0.109322709,0.0765258964 L0.109322709,0.775856574 L1.50809562,0.775856574 L3.14001594,7.18674104 L8.96814343,7.18674104 L8.96814343,6.48741036 L3.6061992,6.48741036 Z M8.03555378,2.17462948 L8.03555378,4.85560159 L3.25647809,4.85560159 L2.55714741,2.17462948 L8.03555378,2.17462948 Z" id="Shape"></path>
                    <circle id="Oval" cx="4.655251" cy="8.46894024" r="1"></circle>
                    <circle id="Oval" cx="7.68583267" cy="8.46894024" r="1"></circle>
                </g>
            </g>
        </g>
    </g>
</svg>